<svg width="32" height="32" viewBox="0 0 32 32" fill="none" xmlns="http://www.w3.org/2000/svg">
<rect width="32" height="32" rx="16" fill="white"/>
<path d="M7.66667 14.125C7.32501 14.125 7.04167 13.8416 7.04167 13.5V11.4166C7.04167 8.99996 9.00834 7.04163 11.4167 7.04163H13.5C13.8417 7.04163 14.125 7.32496 14.125 7.66663C14.125 8.00829 13.8417 8.29163 13.5 8.29163H11.4167C9.69167 8.29163 8.29167 9.69163 8.29167 11.4166V13.5C8.29167 13.8416 8.00834 14.125 7.66667 14.125Z" fill="#292D32"/>
<path d="M24.3333 14.125C23.9917 14.125 23.7083 13.8416 23.7083 13.5V11.4166C23.7083 9.69163 22.3083 8.29163 20.5833 8.29163H18.5C18.1583 8.29163 17.875 8.00829 17.875 7.66663C17.875 7.32496 18.1583 7.04163 18.5 7.04163H20.5833C22.9917 7.04163 24.9583 8.99996 24.9583 11.4166V13.5C24.9583 13.8416 24.675 14.125 24.3333 14.125Z" fill="#292D32"/>
<path d="M20.5833 24.9584H19.3333C18.9917 24.9584 18.7083 24.675 18.7083 24.3334C18.7083 23.9917 18.9917 23.7084 19.3333 23.7084H20.5833C22.3083 23.7084 23.7083 22.3084 23.7083 20.5834V19.3334C23.7083 18.9917 23.9917 18.7084 24.3333 18.7084C24.675 18.7084 24.9583 18.9917 24.9583 19.3334V20.5834C24.9583 23 22.9917 24.9584 20.5833 24.9584Z" fill="#292D32"/>
<path d="M13.5 24.9583H11.4167C9.00834 24.9583 7.04167 23 7.04167 20.5833V18.5C7.04167 18.1583 7.32501 17.875 7.66667 17.875C8.00834 17.875 8.29167 18.1583 8.29167 18.5V20.5833C8.29167 22.3083 9.69167 23.7083 11.4167 23.7083H13.5C13.8417 23.7083 14.125 23.9917 14.125 24.3333C14.125 24.675 13.8417 24.9583 13.5 24.9583Z" fill="#292D32"/>
<path d="M13.5 15.375H11.8333C10.6583 15.375 9.95833 14.675 9.95833 13.5V11.8334C9.95833 10.6584 10.6583 9.95837 11.8333 9.95837H13.5C14.675 9.95837 15.375 10.6584 15.375 11.8334V13.5C15.375 14.675 14.675 15.375 13.5 15.375ZM11.8333 11.2084C11.3417 11.2084 11.2083 11.3417 11.2083 11.8334V13.5C11.2083 13.9917 11.3417 14.125 11.8333 14.125H13.5C13.9917 14.125 14.125 13.9917 14.125 13.5V11.8334C14.125 11.3417 13.9917 11.2084 13.5 11.2084H11.8333Z" fill="#292D32"/>
<path d="M20.1667 15.375H18.5C17.325 15.375 16.625 14.675 16.625 13.5V11.8334C16.625 10.6584 17.325 9.95837 18.5 9.95837H20.1667C21.3417 9.95837 22.0417 10.6584 22.0417 11.8334V13.5C22.0417 14.675 21.3417 15.375 20.1667 15.375ZM18.5 11.2084C18.0083 11.2084 17.875 11.3417 17.875 11.8334V13.5C17.875 13.9917 18.0083 14.125 18.5 14.125H20.1667C20.6583 14.125 20.7917 13.9917 20.7917 13.5V11.8334C20.7917 11.3417 20.6583 11.2084 20.1667 11.2084H18.5Z" fill="#292D32"/>
<path d="M13.5 22.0417H11.8333C10.6583 22.0417 9.95833 21.3417 9.95833 20.1667V18.5C9.95833 17.325 10.6583 16.625 11.8333 16.625H13.5C14.675 16.625 15.375 17.325 15.375 18.5V20.1667C15.375 21.3417 14.675 22.0417 13.5 22.0417ZM11.8333 17.875C11.3417 17.875 11.2083 18.0083 11.2083 18.5V20.1667C11.2083 20.6583 11.3417 20.7917 11.8333 20.7917H13.5C13.9917 20.7917 14.125 20.6583 14.125 20.1667V18.5C14.125 18.0083 13.9917 17.875 13.5 17.875H11.8333Z" fill="#292D32"/>
<path d="M20.1667 22.0417H18.5C17.325 22.0417 16.625 21.3417 16.625 20.1667V18.5C16.625 17.325 17.325 16.625 18.5 16.625H20.1667C21.3417 16.625 22.0417 17.325 22.0417 18.5V20.1667C22.0417 21.3417 21.3417 22.0417 20.1667 22.0417ZM18.5 17.875C18.0083 17.875 17.875 18.0083 17.875 18.5V20.1667C17.875 20.6583 18.0083 20.7917 18.5 20.7917H20.1667C20.6583 20.7917 20.7917 20.6583 20.7917 20.1667V18.5C20.7917 18.0083 20.6583 17.875 20.1667 17.875H18.5Z" fill="#292D32"/>
</svg>
