<svg width="40" height="40" viewBox="0 0 40 40" fill="none" xmlns="http://www.w3.org/2000/svg">
<circle cx="20" cy="20" r="20" fill="#F6EFFB"/>
<path d="M27.8327 14.5835V25.4168C27.8327 25.7502 27.7077 26.0418 27.4577 26.2918C27.2077 26.5418 26.916 26.6668 26.5827 26.6668H12.416C12.0827 26.6668 11.791 26.5418 11.541 26.2918C11.291 26.0418 11.166 25.7502 11.166 25.4168V14.5835C11.166 14.2502 11.291 13.9585 11.541 13.7085C11.791 13.4585 12.0827 13.3335 12.416 13.3335H26.5827C26.916 13.3335 27.2077 13.4585 27.4577 13.7085C27.7077 13.9585 27.8327 14.2502 27.8327 14.5835ZM12.416 16.8543H26.5827V14.5835H12.416V16.8543ZM12.416 19.5418V25.4168H26.5827V19.5418H12.416Z" fill="#9F56D4"/>
</svg>
