<svg width="40" height="40" viewBox="0 0 40 40" fill="none" xmlns="http://www.w3.org/2000/svg">
<circle cx="20" cy="20" r="20" fill="#F6EFFB"/>
<path d="M12.9615 24.2392V26.2053H27.0385V24.2392H12.9615ZM12.9615 14.8705H15.4062C15.3401 14.7455 15.2854 14.5898 15.2421 14.4034C15.1987 14.217 15.1771 14.0463 15.1771 13.8914C15.1771 13.2222 15.4121 12.6535 15.882 12.185C16.352 11.7166 16.9145 11.4824 17.5695 11.4824C18.0015 11.4824 18.4012 11.5909 18.7684 11.8078C19.1357 12.0248 19.4251 12.3016 19.6368 12.6382L20.0104 13.2148L20.3841 12.6382C20.6096 12.2877 20.8987 12.0074 21.2514 11.7974C21.6041 11.5874 21.9823 11.4824 22.3859 11.4824C23.0684 11.4824 23.6452 11.7136 24.1163 12.176C24.5874 12.6383 24.8229 13.2132 24.8229 13.9006C24.8229 14.0472 24.8055 14.1978 24.7708 14.3522C24.7361 14.5067 24.684 14.6794 24.6146 14.8705H27.0385C27.4232 14.8705 27.7567 15.0118 28.0392 15.2942C28.3216 15.5767 28.4629 15.9102 28.4629 16.2949V26.2053C28.4629 26.5886 28.3216 26.921 28.0392 27.2024C27.7567 27.4839 27.4232 27.6246 27.0385 27.6246H12.9615C12.5782 27.6246 12.2458 27.4839 11.9643 27.2024C11.6828 26.921 11.5421 26.5886 11.5421 26.2053V16.2949C11.5421 15.9102 11.6828 15.5767 11.9643 15.2942C12.2458 15.0118 12.5782 14.8705 12.9615 14.8705ZM12.9615 21.8955H27.0385V16.2949H22.0004L24.014 19.111L22.9592 19.8959L20 15.761L17.0408 19.8959L15.9859 19.111L18.0095 16.2949H12.9615V21.8955ZM17.591 14.9955C17.8966 14.9955 18.157 14.8879 18.3723 14.6726C18.5876 14.4574 18.6952 14.1969 18.6952 13.8914C18.6952 13.5892 18.5876 13.3296 18.3723 13.1126C18.157 12.8957 17.8966 12.7872 17.591 12.7872C17.2855 12.7872 17.0251 12.8957 16.8098 13.1126C16.5945 13.3296 16.4869 13.5892 16.4869 13.8914C16.4869 14.1969 16.5945 14.4574 16.8098 14.6726C17.0251 14.8879 17.2855 14.9955 17.591 14.9955ZM22.3881 14.9955C22.7069 14.9955 22.9741 14.8879 23.1897 14.6726C23.4053 14.4574 23.5131 14.1969 23.5131 13.8914C23.5131 13.5892 23.4053 13.3296 23.1897 13.1126C22.9741 12.8957 22.7069 12.7872 22.3881 12.7872C22.0964 12.7872 21.843 12.8957 21.6277 13.1126C21.4124 13.3296 21.3048 13.5892 21.3048 13.8914C21.3048 14.1969 21.4124 14.4574 21.6277 14.6726C21.843 14.8879 22.0964 14.9955 22.3881 14.9955Z" fill="#9F56D4"/>
</svg>
