<svg width="41" height="40" viewBox="0 0 41 40" fill="none" xmlns="http://www.w3.org/2000/svg">
<circle cx="20.5" cy="20" r="20" fill="#F6EFFB"/>
<path opacity="0.4" d="M24.0331 11.6665H16.9665C14.6665 11.6665 13.8331 12.4998 13.8331 14.8415V25.1582C13.8331 27.4998 14.6665 28.3332 16.9665 28.3332H24.0248C26.3331 28.3332 27.1665 27.4998 27.1665 25.1582V14.8415C27.1665 12.4998 26.3331 11.6665 24.0331 11.6665Z" fill="#9F56D4"/>
<path d="M22.1665 15.2085H18.8331C18.4915 15.2085 18.2081 14.9252 18.2081 14.5835C18.2081 14.2418 18.4915 13.9585 18.8331 13.9585H22.1665C22.5081 13.9585 22.7915 14.2418 22.7915 14.5835C22.7915 14.9252 22.5081 15.2085 22.1665 15.2085Z" fill="#9F56D4"/>
<path d="M20.5002 26.0834C21.3056 26.0834 21.9585 25.4305 21.9585 24.6251C21.9585 23.8197 21.3056 23.1667 20.5002 23.1667C19.6948 23.1667 19.0419 23.8197 19.0419 24.6251C19.0419 25.4305 19.6948 26.0834 20.5002 26.0834Z" fill="#9F56D4"/>
</svg>
