<svg width="21" height="26" viewBox="0 0 21 26" fill="none" xmlns="http://www.w3.org/2000/svg">
<path d="M3.36722 26V16.748H0.559219V14.444H3.36722V11.492H0.559219V9.188H3.36722V0.295998H7.11122L10.5312 9.188H14.7792V0.295998H17.6232V9.188H20.4312V11.492H17.6232V14.444H20.4312V16.748H17.6232V26H13.8432L10.4232 16.748H6.17522V26H3.36722ZM6.17522 14.444H9.55922L8.47922 11.492H6.10322L6.17522 14.444ZM14.7792 20.924H14.9232L14.8152 16.748H13.3032L14.7792 20.924ZM6.10322 9.188H7.61522L6.10322 4.724H5.95922L6.10322 9.188ZM12.4392 14.444H14.8512L14.7792 11.492H11.3592L12.4392 14.444Z" fill="white"/>
</svg>
